<?xml version="1.0" encoding="UTF-8"?>
<svg width="300" height="300" viewBox="0 0 300 300" fill="none" xmlns="http://www.w3.org/2000/svg">
  <rect width="300" height="300" rx="30" fill="#F6F0FF"/>
  <!-- hair -->
  <path d="M150 40c-44 0-80 36-80 80v18c0 32 40 54 80 54s80-22 80-54v-18c0-44-36-80-80-80z" fill="#2F2E41"/>
  <!-- face -->
  <ellipse cx="150" cy="130" rx="58" ry="72" fill="#FFDBB4"/>
  <!-- eyes -->
  <g fill="#2E2B2B">
    <ellipse cx="128" cy="130" rx="6" ry="4"/>
    <ellipse cx="172" cy="130" rx="6" ry="4"/>
  </g>
  <!-- eyebrows -->
  <path d="M118 118c6-4 18-6 22 0" stroke="#2E2B2B" stroke-width="2" stroke-linecap="round"/>
  <path d="M158 118c6-4 18-6 22 0" stroke="#2E2B2B" stroke-width="2" stroke-linecap="round"/>
  <!-- lips -->
  <path d="M132 160c6 6 18 6 24 0" stroke="#D95C6F" stroke-width="3" stroke-linecap="round" fill="none"/>
  <!-- shirt -->
  <path d="M80 196c0 0 18-20 70-20s70 20 70 20v38H80v-38z" fill="#6F42C1"/>
  <!-- highlights -->
  <circle cx="180" cy="84" r="6" fill="#FFD4D4" opacity="0.3"/>
</svg>
